<?xml version="1.0" encoding="UTF-8" standalone="no"?>
<!-- Created with Inkscape (http://www.inkscape.org/) -->

<svg
   xmlns:dc="http://purl.org/dc/elements/1.1/"
   xmlns:cc="http://creativecommons.org/ns#"
   xmlns:rdf="http://www.w3.org/1999/02/22-rdf-syntax-ns#"
   xmlns:svg="http://www.w3.org/2000/svg"
   xmlns="http://www.w3.org/2000/svg"
   xmlns:sodipodi="http://sodipodi.sourceforge.net/DTD/sodipodi-0.dtd"
   xmlns:inkscape="http://www.inkscape.org/namespaces/inkscape"
   width="60"
   height="40"
   id="svg3840"
   version="1.1"
   inkscape:version="0.48.5 r10040"
   sodipodi:docname="TicketVector.svg">
  <defs
     id="defs3842" />
  <sodipodi:namedview
     id="base"
     pagecolor="#ffffff"
     bordercolor="#666666"
     borderopacity="1.0"
     inkscape:pageopacity="0.0"
     inkscape:pageshadow="2"
     inkscape:zoom="11.2"
     inkscape:cx="28.689564"
     inkscape:cy="26.842176"
     inkscape:document-units="px"
     inkscape:current-layer="layer1"
     showgrid="false"
     inkscape:window-width="1920"
     inkscape:window-height="1017"
     inkscape:window-x="-8"
     inkscape:window-y="309"
     inkscape:window-maximized="1" />
  <metadata
     id="metadata3845">
    <rdf:RDF>
      <cc:Work
         rdf:about="">
        <dc:format>image/svg+xml</dc:format>
        <dc:type
           rdf:resource="http://purl.org/dc/dcmitype/StillImage" />
        <dc:title></dc:title>
      </cc:Work>
    </rdf:RDF>
  </metadata>
  <g
     inkscape:label="Layer 1"
     inkscape:groupmode="layer"
     id="layer1"
     transform="translate(0,-1012.3622)">
    <path
       style="fill:#1eaeaf;fill-opacity:1;stroke:none"
       d="M 30 0 L 30 6 L 30 14 L 30 20 L 36 20 L 54 20 L 60 20 L 60 14 L 60 6 C 60 2.676 57.324 7.8062556e-018 54 0 L 36 0 L 30 0 z "
       transform="translate(0,1012.3622)"
       id="rect3848" />
    <path
       style="fill:#ffdf00;fill-opacity:1;stroke:none"
       d="M 6 0 C 2.676 0 7.8062556e-018 2.676 0 6 L 0 14 L 0 20 L 6 20 L 24 20 L 30 20 L 30 14 L 30 6 L 30 0 L 24 0 L 6 0 z "
       transform="translate(0,1012.3622)"
       id="rect3848-1" />
    <path
       style="fill:#000000;fill-opacity:1;stroke:none"
       d="M 0 20 L 0 26 L 0 34 C 0 37.324 2.676 40 6 40 L 24 40 L 30 40 L 30 34 L 30 26 L 30 20 L 6 20 L 0 20 z "
       transform="translate(0,1012.3622)"
       id="rect3848-1-7" />
    <path
       style="fill:#fa433b;fill-opacity:1;stroke:none"
       d="M 30 20 L 30 26 L 30 34 L 30 40 L 36 40 L 54 40 C 57.324 40 60 37.324 60 34 L 60 26 L 60 20 L 54 20 L 36 20 L 30 20 z "
       transform="translate(0,1012.3622)"
       id="rect3848-1-4" />
    <text
       xml:space="preserve"
       style="font-size:28.59574699px;font-style:normal;font-variant:normal;font-weight:bold;font-stretch:normal;line-height:125%;letter-spacing:0px;word-spacing:0px;fill:#000000;fill-opacity:1;stroke:none;font-family:Arial;-inkscape-font-specification:Arial Bold"
       x="10.93617"
       y="1066.072"
       id="text3823"
       sodipodi:linespacing="125%"
       transform="scale(1.0212766,0.97916665)"><tspan
         sodipodi:role="line"
         id="tspan3825"
         x="10.93617"
         y="1066.072"
         style="font-size:32.68085098px;font-style:normal;font-variant:normal;font-weight:bold;font-stretch:normal;fill:#ffffff;fill-opacity:1;font-family:Arial;-inkscape-font-specification:Arial Bold">2x</tspan></text>
  </g>
</svg>
