<?xml version="1.0" encoding="UTF-8" standalone="no"?>
<!-- Created with Inkscape (http://www.inkscape.org/) -->

<svg
   xmlns:dc="http://purl.org/dc/elements/1.1/"
   xmlns:cc="http://creativecommons.org/ns#"
   xmlns:rdf="http://www.w3.org/1999/02/22-rdf-syntax-ns#"
   xmlns:svg="http://www.w3.org/2000/svg"
   xmlns="http://www.w3.org/2000/svg"
   xmlns:sodipodi="http://sodipodi.sourceforge.net/DTD/sodipodi-0.dtd"
   xmlns:inkscape="http://www.inkscape.org/namespaces/inkscape"
   width="60"
   height="40"
   id="svg3840"
   version="1.1"
   inkscape:version="0.48.5 r10040"
   sodipodi:docname="TicketVector-Train.svg"
   inkscape:export-filename="C:\Users\Julian\PANDA\panda-cwk5\resources\tickets\bus.png"
   inkscape:export-xdpi="90"
   inkscape:export-ydpi="90">
  <defs
     id="defs3842" />
  <sodipodi:namedview
     id="base"
     pagecolor="#ffffff"
     bordercolor="#666666"
     borderopacity="1.0"
     inkscape:pageopacity="0.0"
     inkscape:pageshadow="2"
     inkscape:zoom="11.2"
     inkscape:cx="30.497792"
     inkscape:cy="20.405945"
     inkscape:document-units="px"
     inkscape:current-layer="layer1"
     showgrid="false"
     inkscape:window-width="1920"
     inkscape:window-height="1017"
     inkscape:window-x="-8"
     inkscape:window-y="309"
     inkscape:window-maximized="1" />
  <metadata
     id="metadata3845">
    <rdf:RDF>
      <cc:Work
         rdf:about="">
        <dc:format>image/svg+xml</dc:format>
        <dc:type
           rdf:resource="http://purl.org/dc/dcmitype/StillImage" />
        <dc:title></dc:title>
      </cc:Work>
    </rdf:RDF>
  </metadata>
  <g
     inkscape:label="Layer 1"
     inkscape:groupmode="layer"
     id="layer1"
     transform="translate(0,-1012.3622)">
    <rect
       style="fill:#ffde00;fill-opacity:1;stroke:none"
       id="rect3848"
       width="60"
       height="40"
       x="0"
       y="1012.3622"
       rx="6"
       ry="6" />
    <path
       style="fill:#ffffff;fill-opacity:1;stroke:#ffffff;stroke-width:0;stroke-linecap:butt;stroke-linejoin:miter;stroke-miterlimit:4;stroke-opacity:1;stroke-dasharray:none"
       d="M 28.15625,7.84375 C 27.141355,7.8589512 26.216974,7.93264 25.5,8 c -5.433555,0.5104852 -5.903431,0.5961359 -13.375,3.34375 -4.6061079,0.996308 -6.043825,1.328975 -7.3125,1.8125 0.1245167,2.047212 0.6714666,4.460564 0.125,5.875 -1.4836516,2.572197 -1.25,3.164974 -1.25,4.21875 0,2.34875 2.1631061,3.390402 4.84375,3.65625 C 8.5199091,26.768822 8.5,26.640354 8.5,26.5 c 0,-2.761424 2.238576,-5 5,-5 2.761424,0 5,2.238576 5,5 0,0.172589 -0.01418,0.331915 -0.03125,0.5 L 21,27 l 3,0 6.3125,0 2.6875,0 9.03125,0 C 42.01418,26.831915 42,26.672589 42,26.5 c 0,-2.761424 2.238576,-5 5,-5 2.761424,0 5,2.238576 5,5 0,0.172589 -0.01418,0.331915 -0.03125,0.5 l 3.71875,0 C 55.855256,27 56,26.7652 56,26.46875 L 56,22 c 0,-1.811679 -0.141028,-4.353297 -5.3125,-5.4375 -3.788978,-0.794362 -2.967328,-0.412237 -6.154981,-1.215577 -4.701734,-1.008714 -1.828778,0.364394 -7.001269,-4.753173 -2.372399,-2.347208 -6.330314,-2.7956035 -9.375,-2.75 z"
       transform="translate(0,1012.3622)"
       id="rect3755"
       inkscape:connector-curvature="0"
       sodipodi:nodetypes="sscccscsssccccccssscsssscss" />
    <path
       sodipodi:type="arc"
       style="fill:#ffffff;fill-opacity:1;stroke:#ffffff;stroke-width:0;stroke-linecap:butt;stroke-linejoin:miter;stroke-miterlimit:4;stroke-opacity:1;stroke-dasharray:none"
       id="path3791"
       sodipodi:cx="13.321386"
       sodipodi:cy="27.562496"
       sodipodi:rx="3.3461304"
       sodipodi:ry="3.3461304"
       d="m 16.667517,27.562496 a 3.3461304,3.3461304 0 1 1 -6.692261,0 3.3461304,3.3461304 0 1 1 6.692261,0 z"
       transform="matrix(1.1954107,0,0,1.1954107,-2.4245277,1005.9137)" />
    <path
       sodipodi:type="arc"
       style="fill:#ffffff;fill-opacity:1;stroke:#ffffff;stroke-width:0;stroke-linecap:butt;stroke-linejoin:miter;stroke-miterlimit:4;stroke-opacity:1;stroke-dasharray:none"
       id="path3791-7"
       sodipodi:cx="13.321386"
       sodipodi:cy="27.562496"
       sodipodi:rx="3.3461304"
       sodipodi:ry="3.3461304"
       d="m 16.667517,27.562496 a 3.3461304,3.3461304 0 1 1 -6.692261,0 3.3461304,3.3461304 0 1 1 6.692261,0 z"
       transform="matrix(1.1954107,0,0,1.1954107,31.075472,1005.9137)" />
  </g>
</svg>
