<?xml version="1.0" encoding="UTF-8" standalone="no"?>
<!-- Created with Inkscape (http://www.inkscape.org/) -->

<svg
   xmlns:dc="http://purl.org/dc/elements/1.1/"
   xmlns:cc="http://creativecommons.org/ns#"
   xmlns:rdf="http://www.w3.org/1999/02/22-rdf-syntax-ns#"
   xmlns:svg="http://www.w3.org/2000/svg"
   xmlns="http://www.w3.org/2000/svg"
   xmlns:sodipodi="http://sodipodi.sourceforge.net/DTD/sodipodi-0.dtd"
   xmlns:inkscape="http://www.inkscape.org/namespaces/inkscape"
   width="60"
   height="40"
   id="svg3840"
   version="1.1"
   inkscape:version="0.48.5 r10040"
   sodipodi:docname="TicketVectorDouble.svg"
   inkscape:export-filename="C:\Users\Julian\Google Drive\University\Year 1\Programming and Algorithms II\panda-cwk5\resources\tickets\double.png"
   inkscape:export-xdpi="90"
   inkscape:export-ydpi="90">
  <defs
     id="defs3842" />
  <sodipodi:namedview
     id="base"
     pagecolor="#ffffff"
     bordercolor="#666666"
     borderopacity="1.0"
     inkscape:pageopacity="0.0"
     inkscape:pageshadow="2"
     inkscape:zoom="11.313708"
     inkscape:cx="28.852958"
     inkscape:cy="19.859943"
     inkscape:document-units="px"
     inkscape:current-layer="layer1"
     showgrid="false"
     inkscape:window-width="1920"
     inkscape:window-height="1017"
     inkscape:window-x="-8"
     inkscape:window-y="309"
     inkscape:window-maximized="1" />
  <metadata
     id="metadata3845">
    <rdf:RDF>
      <cc:Work
         rdf:about="">
        <dc:format>image/svg+xml</dc:format>
        <dc:type
           rdf:resource="http://purl.org/dc/dcmitype/StillImage" />
        <dc:title></dc:title>
      </cc:Work>
    </rdf:RDF>
  </metadata>
  <g
     inkscape:label="Layer 1"
     inkscape:groupmode="layer"
     id="layer1"
     transform="translate(0,-1012.3622)">
    <rect
       style="fill:#000000;fill-opacity:1;stroke:#ffffff;stroke-width:0;stroke-linecap:butt;stroke-linejoin:miter;stroke-miterlimit:4;stroke-opacity:1;stroke-dasharray:none"
       id="rect3827"
       width="60"
       height="40"
       x="0"
       y="1012.3622"
       rx="6"
       ry="6" />
    <path
       style="fill:#ffffff;fill-opacity:1;stroke:#ffffff;stroke-width:0;stroke-linecap:butt;stroke-linejoin:miter;stroke-miterlimit:4;stroke-opacity:1;stroke-dasharray:none"
       d="m 27.84375,1016.2373 c -1.504651,0.01 -2.871919,3.0553 -3.625,5.2812 -3.690738,0.5117 -6.21875,1.4952 -6.21875,2.625 0,1.0607 2.208096,1.9978 5.53125,2.5313 0.0483,1.4214 0.295228,2.7654 0.6875,3.9687 l -1.71875,0 1.875,5.625 c -4.833826,0.3584 -7.806055,1.6744 -9.375,6.4688 -0.873945,2.6706 -1.604537,4.9848 -2,7.4062 1.48804,0.3183 1.224047,0.4743 6.59375,0.6875 l 7.40625,0 6,0 c 2.604169,-0.029 5.156102,-0.064 7.8125,-0.094 2.364224,-0.01 6.351061,-0.4453 6.1875,-0.5938 -0.593927,-2.4899 -1.036905,-4.6144 -2,-7.4062 -1.548101,-4.4876 -4.526717,-5.952 -9.40625,-6.4063 l 1.90625,-5.6875 -1.71875,0 c 0.392272,-1.2033 0.639204,-2.5473 0.6875,-3.9687 3.323154,-0.5335 5.53125,-1.4706 5.53125,-2.5313 0,-1.1298 -2.528012,-2.1133 -6.21875,-2.625 -0.827158,-2.4449 -2.243996,-6.2151 -4.0625,-5.0312 -0.594693,0.3073 -0.887735,1.0312 -1.59375,1.0312 -0.724874,0 -1.038928,-0.7162 -1.625,-1.0937 -0.218949,-0.1343 -0.4413,-0.1888 -0.65625,-0.1875 z"
       id="path3829"
       inkscape:connector-curvature="0"
       sodipodi:nodetypes="ccsccccsccccccsccccsccsccc" />
  </g>
</svg>
